<?xml version="1.0" encoding="UTF-8" standalone="no"?>
<!-- Created with Inkscape (http://www.inkscape.org/) -->

<svg
   width="39.6875mm"
   height="39.6875mm"
   viewBox="0 0 39.6875 39.6875"
   version="1.1"
   id="svg5"
   xmlns:inkscape="http://www.inkscape.org/namespaces/inkscape"
   xmlns:sodipodi="http://sodipodi.sourceforge.net/DTD/sodipodi-0.dtd"
   xmlns="http://www.w3.org/2000/svg"
   xmlns:svg="http://www.w3.org/2000/svg">
  <sodipodi:namedview
     id="namedview7"
     pagecolor="#505050"
     bordercolor="#ffffff"
     borderopacity="1"
     inkscape:showpageshadow="0"
     inkscape:pageopacity="0"
     inkscape:pagecheckerboard="1"
     inkscape:deskcolor="#505050"
     inkscape:document-units="px"
     showgrid="false"
     showborder="false"
     borderlayer="false" />
  <defs
     id="defs2" />
  <g
     inkscape:label="Layer 1"
     inkscape:groupmode="layer"
     id="layer1">
    <path
       id="path234"
       style="fill:#c0c0c0;fill-opacity:1;stroke-width:0.104353"
       d="M 19.84375,0 A 19.84375,19.84375 0 0 0 0,19.84375 19.84375,19.84375 0 0 0 19.84375,39.6875 19.84375,19.84375 0 0 0 39.6875,19.84375 19.84375,19.84375 0 0 0 19.84375,0 Z m 0,3.96875 a 15.875,15.875 0 0 1 15.875,15.875 15.875,15.875 0 0 1 -15.875,15.875 15.875,15.875 0 0 1 -15.875,-15.875 15.875,15.875 0 0 1 15.875,-15.875 z"
       inkscape:export-filename="circle.svg"
       inkscape:export-xdpi="96"
       inkscape:export-ydpi="96" />
  </g>
</svg>
